<svg xmlns="http://www.w3.org/2000/svg" width="50" height="45" fill="none"><rect width="50" height="45" fill="#EDECE2" rx="4"/><path fill="#1C2500" d="M22 32.32c-5.564 0-10.09-4.405-10.09-9.82s4.526-9.82 10.09-9.82 10.09 4.405 10.09 9.82c-.002 5.415-4.528 9.82-10.09 9.82Zm0-18.263c-4.782 0-8.675 3.788-8.675 8.443 0 4.654 3.893 8.443 8.675 8.443 4.782 0 8.675-3.789 8.675-8.443-.003-4.655-3.893-8.443-8.675-8.443Z"/><path fill="#1C2500" d="M28 32.32c-5.564 0-10.09-4.405-10.09-9.82s4.526-9.82 10.09-9.82 10.09 4.405 10.09 9.82c-.002 5.415-4.528 9.82-10.09 9.82Zm0-18.263c-4.782 0-8.675 3.789-8.675 8.443 0 4.655 3.893 8.443 8.675 8.443 4.782 0 8.675-3.788 8.675-8.443-.003-4.654-3.893-8.443-8.675-8.443Z"/></svg>